<?xml version="1.0" encoding="iso-8859-1"?>
<!-- Generator: Adobe Illustrator 19.0.0, SVG Export Plug-In . SVG Version: 6.00 Build 0)  -->
<svg version="1.1" id="Layer_1" xmlns="http://www.w3.org/2000/svg" xmlns:xlink="http://www.w3.org/1999/xlink" x="0px" y="0px"
	 viewBox="0 0 512 512" style="enable-background:new 0 0 512 512;" xml:space="preserve">
<path style="fill:#293133;" d="M402.315,8.474H109.684c-21.128,0-38.256,17.127-38.256,38.256v418.541
	c0,21.128,17.127,38.256,38.256,38.256h292.632c21.128,0,38.256-17.127,38.256-38.256V46.729
	C440.572,25.601,423.443,8.474,402.315,8.474z"/>
<rect x="116.622" y="53.668" style="fill:#56D676;" width="278.756" height="112.149"/>
<rect x="116.622" y="53.668" style="opacity:0.3;fill:#333333;enable-background:new    ;" width="278.756" height="33.895"/>
<g>
	<path style="fill:#CCF7FF;" d="M210.952,440.068h10.869c11.128,0,20.15-9.021,20.15-20.15v-10.869
		c0-11.128-9.021-20.15-20.15-20.15h-10.869c-11.128,0-20.15,9.021-20.15,20.15v10.869
		C190.804,431.047,199.824,440.068,210.952,440.068z"/>
	<path style="fill:#CCF7FF;" d="M131.728,440.068h10.869c11.128,0,20.15-9.021,20.15-20.15v-10.869
		c0-11.128-9.021-20.15-20.15-20.15h-10.869c-11.128,0-20.15,9.021-20.15,20.15v10.869
		C111.58,431.047,120.601,440.068,131.728,440.068z"/>
</g>
<path style="fill:#FF8095;" d="M400.419,238.479v10.869c0,11.128-9.021,20.15-20.15,20.15H369.4c-11.128,0-20.15-9.021-20.15-20.15
	v-10.869c0-11.128,9.021-20.15,20.15-20.15h10.869C391.398,218.331,400.419,227.352,400.419,238.479z"/>
<g>
	<path style="fill:#CCF7FF;" d="M290.176,354.784h10.869c11.128,0,20.15-9.021,20.15-20.15v-10.869
		c0-11.128-9.021-20.15-20.15-20.15h-10.869c-11.128,0-20.15,9.021-20.15,20.15v10.869
		C270.028,345.762,279.048,354.784,290.176,354.784z"/>
	<path style="fill:#CCF7FF;" d="M210.952,354.784h10.869c11.128,0,20.15-9.021,20.15-20.15v-10.869
		c0-11.128-9.021-20.15-20.15-20.15h-10.869c-11.128,0-20.15,9.021-20.15,20.15v10.869
		C190.804,345.762,199.824,354.784,210.952,354.784z"/>
	<path style="fill:#CCF7FF;" d="M131.728,354.784h10.869c11.128,0,20.15-9.021,20.15-20.15v-10.869
		c0-11.128-9.021-20.15-20.15-20.15h-10.869c-11.128,0-20.15,9.021-20.15,20.15v10.869
		C111.58,345.762,120.601,354.784,131.728,354.784z"/>
	<path style="fill:#CCF7FF;" d="M290.176,269.498h10.869c11.128,0,20.15-9.021,20.15-20.15v-10.869
		c0-11.128-9.021-20.15-20.15-20.15h-10.869c-11.128,0-20.15,9.021-20.15,20.15v10.869
		C270.028,260.478,279.048,269.498,290.176,269.498z"/>
	<path style="fill:#CCF7FF;" d="M210.952,269.498h10.869c11.128,0,20.15-9.021,20.15-20.15v-10.869
		c0-11.128-9.021-20.15-20.15-20.15h-10.869c-11.128,0-20.15,9.021-20.15,20.15v10.869
		C190.804,260.478,199.824,269.498,210.952,269.498z"/>
	<path style="fill:#CCF7FF;" d="M131.728,269.498h10.869c11.128,0,20.15-9.021,20.15-20.15v-10.869
		c0-11.128-9.021-20.15-20.15-20.15h-10.869c-11.128,0-20.15,9.021-20.15,20.15v10.869
		C111.58,260.478,120.601,269.498,131.728,269.498z"/>
	<path style="fill:#CCF7FF;" d="M290.176,440.068h10.869c11.128,0,20.15-9.021,20.15-20.15v-10.869
		c0-11.128-9.021-20.15-20.15-20.15h-10.869c-11.128,0-20.15,9.021-20.15,20.15v10.869
		C270.028,431.047,279.048,440.068,290.176,440.068z"/>
</g>
<g>
	<path style="opacity:0.3;fill:#333333;enable-background:new    ;" d="M290.176,440.068h10.869c11.128,0,20.15-9.021,20.15-20.15
		v-10.869c0-5.565-2.255-10.601-5.901-14.247l-39.365,39.365C279.575,437.813,284.613,440.068,290.176,440.068z"/>
	<path style="opacity:0.3;fill:#333333;enable-background:new    ;" d="M210.952,440.068h10.869c11.128,0,20.15-9.021,20.15-20.15
		v-10.869c0-5.565-2.255-10.601-5.901-14.247l-39.365,39.365C200.351,437.813,205.389,440.068,210.952,440.068z"/>
	<path style="opacity:0.3;fill:#333333;enable-background:new    ;" d="M131.728,440.068h10.869c11.128,0,20.15-9.021,20.15-20.15
		v-10.869c0-5.565-2.255-10.601-5.901-14.247l-39.365,39.365C121.127,437.813,126.165,440.068,131.728,440.068z"/>
	<path style="opacity:0.3;fill:#333333;enable-background:new    ;" d="M400.419,238.479v10.869c0,11.128-9.021,20.15-20.15,20.15
		H369.4c-5.564,0-10.601-2.255-14.247-5.901l39.365-39.365C398.164,227.878,400.419,232.916,400.419,238.479z"/>
	<path style="opacity:0.3;fill:#333333;enable-background:new    ;" d="M290.176,354.784h10.869c11.128,0,20.15-9.021,20.15-20.15
		v-10.869c0-5.564-2.255-10.601-5.901-14.247l-39.365,39.365C279.575,352.527,284.613,354.784,290.176,354.784z"/>
	<path style="opacity:0.3;fill:#333333;enable-background:new    ;" d="M210.952,354.784h10.869c11.128,0,20.15-9.021,20.15-20.15
		v-10.869c0-5.564-2.255-10.601-5.901-14.247l-39.365,39.365C200.351,352.527,205.389,354.784,210.952,354.784z"/>
	<path style="opacity:0.3;fill:#333333;enable-background:new    ;" d="M131.728,354.784h10.869c11.128,0,20.15-9.021,20.15-20.15
		v-10.869c0-5.564-2.255-10.601-5.901-14.247l-39.365,39.365C121.127,352.527,126.165,354.784,131.728,354.784z"/>
	<path style="opacity:0.3;fill:#333333;enable-background:new    ;" d="M290.176,269.498h10.869c11.128,0,20.15-9.021,20.15-20.15
		v-10.869c0-5.564-2.255-10.601-5.901-14.247l-39.365,39.365C279.575,267.243,284.613,269.498,290.176,269.498z"/>
	<path style="opacity:0.3;fill:#333333;enable-background:new    ;" d="M210.952,269.498h10.869c11.128,0,20.15-9.021,20.15-20.15
		v-10.869c0-5.564-2.255-10.601-5.901-14.247l-39.365,39.365C200.351,267.243,205.389,269.498,210.952,269.498z"/>
	<path style="opacity:0.3;fill:#333333;enable-background:new    ;" d="M131.728,269.498h10.869c11.128,0,20.15-9.021,20.15-20.15
		v-10.869c0-5.564-2.255-10.601-5.901-14.247l-39.365,39.365C121.127,267.243,126.165,269.498,131.728,269.498z"/>
</g>
<path style="fill:#56D676;" d="M400.419,419.92c0,11.128-9.021,20.15-20.15,20.15H369.4c-11.128,0-20.15-9.021-20.15-20.15v-96.155
	c0-11.128,9.021-20.15,20.15-20.15h10.869c11.128,0,20.15,9.021,20.15,20.15V419.92z"/>
<rect x="256.001" y="8.474" style="opacity:0.2;fill:#333333;enable-background:new    ;" width="184.572" height="495.055"/>
<g>
	<path style="fill:#26150C;" d="M402.315,512H109.684c-25.766,0-46.729-20.963-46.729-46.728V46.728
		C62.953,20.963,83.917,0,109.684,0h292.632c25.767,0,46.729,20.963,46.729,46.728v418.543C449.045,491.037,428.082,512,402.315,512
		z M109.684,16.948c-16.421,0-29.782,13.359-29.782,29.781v418.543c0,16.421,13.36,29.781,29.782,29.781h292.632
		c16.422,0,29.782-13.359,29.782-29.781V46.728c0-16.421-13.36-29.781-29.782-29.781C402.316,16.948,109.684,16.948,109.684,16.948z
		"/>
	<path style="fill:#26150C;" d="M395.376,174.292H116.622c-4.68,0-8.474-3.793-8.474-8.474V53.668c0-4.681,3.794-8.474,8.474-8.474
		h278.755c4.68,0,8.474,3.793,8.474,8.474v112.15C403.85,170.498,400.057,174.292,395.376,174.292z M125.096,157.344h261.807V62.142
		H125.096V157.344z"/>
	<path style="fill:#26150C;" d="M142.599,277.972H131.73c-15.783,0-28.624-12.841-28.624-28.624v-10.869
		c0-15.783,12.841-28.624,28.624-28.624h10.869c15.783,0,28.624,12.841,28.624,28.624v10.869
		C171.221,265.131,158.382,277.972,142.599,277.972z M131.73,226.804c-6.438,0-11.676,5.238-11.676,11.676v10.869
		c0,6.438,5.238,11.676,11.676,11.676h10.869c6.438,0,11.676-5.238,11.676-11.676v-10.869c0-6.438-5.238-11.676-11.676-11.676
		H131.73z"/>
	<path style="fill:#26150C;" d="M221.823,277.972h-10.869c-15.783,0-28.622-12.841-28.622-28.624v-10.869
		c0-15.783,12.841-28.624,28.622-28.624h10.869c15.783,0,28.624,12.841,28.624,28.624v10.869
		C250.445,265.131,237.605,277.972,221.823,277.972z M210.952,226.804c-6.438,0-11.675,5.238-11.675,11.676v10.869
		c0,6.438,5.237,11.676,11.675,11.676h10.869c6.438,0,11.676-5.238,11.676-11.676v-10.869c0-6.438-5.238-11.676-11.676-11.676
		H210.952z"/>
	<path style="fill:#26150C;" d="M301.046,277.972h-10.869c-15.783,0-28.622-12.841-28.622-28.624v-10.869
		c0-15.783,12.841-28.624,28.622-28.624h10.869c15.783,0,28.622,12.841,28.622,28.624v10.869
		C329.669,265.131,316.829,277.972,301.046,277.972z M290.176,226.804c-6.438,0-11.675,5.238-11.675,11.676v10.869
		c0,6.438,5.237,11.676,11.675,11.676h10.869c6.438,0,11.675-5.238,11.675-11.676v-10.869c0-6.438-5.237-11.676-11.675-11.676
		H290.176z"/>
	<path style="fill:#26150C;" d="M380.27,277.972h-10.869c-15.783,0-28.624-12.841-28.624-28.624v-10.869
		c0-15.783,12.841-28.624,28.624-28.624h10.869c15.783,0,28.624,12.841,28.624,28.624v10.869
		C408.893,265.131,396.053,277.972,380.27,277.972z M369.401,226.804c-6.438,0-11.676,5.238-11.676,11.676v10.869
		c0,6.438,5.238,11.676,11.676,11.676h10.869c6.438,0,11.676-5.238,11.676-11.676v-10.869c0-6.438-5.238-11.676-11.676-11.676
		H369.401z"/>
	<path style="fill:#26150C;" d="M142.599,363.258H131.73c-15.783,0-28.624-12.841-28.624-28.624v-10.869
		c0-15.783,12.841-28.624,28.624-28.624h10.869c15.783,0,28.624,12.841,28.624,28.624v10.869
		C171.221,350.417,158.382,363.258,142.599,363.258z M131.73,312.089c-6.438,0-11.676,5.238-11.676,11.676v10.869
		c0,6.438,5.238,11.676,11.676,11.676h10.869c6.438,0,11.676-5.238,11.676-11.676v-10.869c0-6.438-5.238-11.676-11.676-11.676
		H131.73z"/>
	<path style="fill:#26150C;" d="M221.823,363.258h-10.869c-15.783,0-28.622-12.841-28.622-28.624v-10.869
		c0-15.783,12.841-28.624,28.622-28.624h10.869c15.783,0,28.624,12.841,28.624,28.624v10.869
		C250.445,350.417,237.605,363.258,221.823,363.258z M210.952,312.089c-6.438,0-11.675,5.238-11.675,11.676v10.869
		c0,6.438,5.237,11.676,11.675,11.676h10.869c6.438,0,11.676-5.238,11.676-11.676v-10.869c0-6.438-5.238-11.676-11.676-11.676
		H210.952z"/>
	<path style="fill:#26150C;" d="M301.046,363.258h-10.869c-15.783,0-28.622-12.841-28.622-28.624v-10.869
		c0-15.783,12.841-28.624,28.622-28.624h10.869c15.783,0,28.622,12.841,28.622,28.624v10.869
		C329.669,350.417,316.829,363.258,301.046,363.258z M290.176,312.089c-6.438,0-11.675,5.238-11.675,11.676v10.869
		c0,6.438,5.237,11.676,11.675,11.676h10.869c6.438,0,11.675-5.238,11.675-11.676v-10.869c0-6.438-5.237-11.676-11.675-11.676
		H290.176z"/>
	<path style="fill:#26150C;" d="M142.599,448.542H131.73c-15.783,0-28.624-12.841-28.624-28.624v-10.869
		c0-15.783,12.841-28.622,28.624-28.622h10.869c15.783,0,28.624,12.84,28.624,28.622v10.869
		C171.221,435.701,158.382,448.542,142.599,448.542z M131.73,397.375c-6.438,0-11.676,5.238-11.676,11.675v10.869
		c0,6.438,5.238,11.676,11.676,11.676h10.869c6.438,0,11.676-5.238,11.676-11.676v-10.869c0-6.437-5.238-11.675-11.676-11.675
		H131.73z"/>
	<path style="fill:#26150C;" d="M221.823,448.542h-10.869c-15.783,0-28.622-12.841-28.622-28.624v-10.869
		c0-15.783,12.841-28.622,28.622-28.622h10.869c15.783,0,28.624,12.84,28.624,28.622v10.869
		C250.445,435.701,237.605,448.542,221.823,448.542z M210.952,397.375c-6.438,0-11.675,5.238-11.675,11.675v10.869
		c0,6.438,5.237,11.676,11.675,11.676h10.869c6.438,0,11.676-5.238,11.676-11.676v-10.869c0-6.437-5.238-11.675-11.676-11.675
		H210.952z"/>
	<path style="fill:#26150C;" d="M301.046,448.542h-10.869c-15.783,0-28.622-12.841-28.622-28.624v-10.869
		c0-15.783,12.841-28.622,28.622-28.622h10.869c15.783,0,28.622,12.84,28.622,28.622v10.869
		C329.669,435.701,316.829,448.542,301.046,448.542z M290.176,397.375c-6.438,0-11.675,5.238-11.675,11.675v10.869
		c0,6.438,5.237,11.676,11.675,11.676h10.869c6.438,0,11.675-5.238,11.675-11.676v-10.869c0-6.437-5.237-11.675-11.675-11.675
		H290.176z"/>
	<path style="fill:#26150C;" d="M380.27,448.542h-10.869c-15.783,0-28.624-12.841-28.624-28.624v-96.155
		c0-15.783,12.841-28.624,28.624-28.624h10.869c15.783,0,28.624,12.841,28.624,28.624v96.155
		C408.893,435.701,396.053,448.542,380.27,448.542z M369.401,312.089c-6.438,0-11.676,5.238-11.676,11.676v96.155
		c0,6.438,5.238,11.676,11.676,11.676h10.869c6.438,0,11.676-5.238,11.676-11.676v-96.155c0-6.438-5.238-11.676-11.676-11.676
		H369.401z"/>
</g>

</svg>
